<mxfile host="app.diagrams.net" modified="2022-12-12T03:17:28.071Z" agent="5.0 (Windows NT 10.0; Win64; x64) AppleWebKit/537.36 (KHTML, like Gecko) Chrome/108.0.0.0 Safari/537.36 Edg/108.0.1462.46" etag="ecYGh8LG6Fm28QxOxBcA" version="20.6.2" type="github">
  <diagram id="C5RBs43oDa-KdzZeNtuy" name="Page-1">
    <mxGraphModel dx="2031" dy="1089" grid="1" gridSize="10" guides="1" tooltips="1" connect="1" arrows="1" fold="1" page="1" pageScale="1" pageWidth="827" pageHeight="1169" math="0" shadow="0">
      <root>
        <mxCell id="WIyWlLk6GJQsqaUBKTNV-0" />
        <mxCell id="WIyWlLk6GJQsqaUBKTNV-1" parent="WIyWlLk6GJQsqaUBKTNV-0" />
        <mxCell id="gCVjrmtJ2_ybSlwBKrDH-10" style="edgeStyle=orthogonalEdgeStyle;rounded=0;orthogonalLoop=1;jettySize=auto;html=1;entryX=0.5;entryY=0;entryDx=0;entryDy=0;entryPerimeter=0;" edge="1" parent="WIyWlLk6GJQsqaUBKTNV-1" source="gCVjrmtJ2_ybSlwBKrDH-2" target="gCVjrmtJ2_ybSlwBKrDH-9">
          <mxGeometry relative="1" as="geometry" />
        </mxCell>
        <mxCell id="gCVjrmtJ2_ybSlwBKrDH-2" value="" style="strokeWidth=2;html=1;shape=mxgraph.flowchart.start_2;whiteSpace=wrap;" vertex="1" parent="WIyWlLk6GJQsqaUBKTNV-1">
          <mxGeometry x="340" y="60" width="100" height="100" as="geometry" />
        </mxCell>
        <mxCell id="gCVjrmtJ2_ybSlwBKrDH-6" style="edgeStyle=orthogonalEdgeStyle;rounded=0;orthogonalLoop=1;jettySize=auto;html=1;" edge="1" parent="WIyWlLk6GJQsqaUBKTNV-1" source="gCVjrmtJ2_ybSlwBKrDH-3" target="gCVjrmtJ2_ybSlwBKrDH-5">
          <mxGeometry relative="1" as="geometry" />
        </mxCell>
        <mxCell id="gCVjrmtJ2_ybSlwBKrDH-3" value="" style="shape=parallelogram;html=1;strokeWidth=2;perimeter=parallelogramPerimeter;whiteSpace=wrap;rounded=1;arcSize=12;size=0.23;" vertex="1" parent="WIyWlLk6GJQsqaUBKTNV-1">
          <mxGeometry x="340" y="370" width="100" height="60" as="geometry" />
        </mxCell>
        <mxCell id="gCVjrmtJ2_ybSlwBKrDH-5" value="" style="strokeWidth=2;html=1;shape=mxgraph.flowchart.terminator;whiteSpace=wrap;" vertex="1" parent="WIyWlLk6GJQsqaUBKTNV-1">
          <mxGeometry x="340" y="510" width="100" height="60" as="geometry" />
        </mxCell>
        <mxCell id="gCVjrmtJ2_ybSlwBKrDH-11" style="edgeStyle=orthogonalEdgeStyle;rounded=0;orthogonalLoop=1;jettySize=auto;html=1;entryX=0.5;entryY=0;entryDx=0;entryDy=0;" edge="1" parent="WIyWlLk6GJQsqaUBKTNV-1" source="gCVjrmtJ2_ybSlwBKrDH-9" target="gCVjrmtJ2_ybSlwBKrDH-3">
          <mxGeometry relative="1" as="geometry" />
        </mxCell>
        <mxCell id="gCVjrmtJ2_ybSlwBKrDH-13" style="edgeStyle=orthogonalEdgeStyle;rounded=0;orthogonalLoop=1;jettySize=auto;html=1;entryX=0;entryY=0.5;entryDx=0;entryDy=0;" edge="1" parent="WIyWlLk6GJQsqaUBKTNV-1" source="gCVjrmtJ2_ybSlwBKrDH-9" target="gCVjrmtJ2_ybSlwBKrDH-12">
          <mxGeometry relative="1" as="geometry" />
        </mxCell>
        <mxCell id="gCVjrmtJ2_ybSlwBKrDH-9" value="" style="strokeWidth=2;html=1;shape=mxgraph.flowchart.decision;whiteSpace=wrap;" vertex="1" parent="WIyWlLk6GJQsqaUBKTNV-1">
          <mxGeometry x="340" y="210" width="100" height="100" as="geometry" />
        </mxCell>
        <mxCell id="gCVjrmtJ2_ybSlwBKrDH-18" style="edgeStyle=orthogonalEdgeStyle;rounded=0;orthogonalLoop=1;jettySize=auto;html=1;entryX=1;entryY=0.5;entryDx=0;entryDy=0;entryPerimeter=0;strokeColor=none;" edge="1" parent="WIyWlLk6GJQsqaUBKTNV-1" source="gCVjrmtJ2_ybSlwBKrDH-12" target="gCVjrmtJ2_ybSlwBKrDH-5">
          <mxGeometry relative="1" as="geometry">
            <Array as="points">
              <mxPoint x="570" y="540" />
            </Array>
          </mxGeometry>
        </mxCell>
        <mxCell id="gCVjrmtJ2_ybSlwBKrDH-12" value="" style="shape=parallelogram;html=1;strokeWidth=2;perimeter=parallelogramPerimeter;whiteSpace=wrap;rounded=1;arcSize=12;size=0.23;" vertex="1" parent="WIyWlLk6GJQsqaUBKTNV-1">
          <mxGeometry x="520" y="230" width="100" height="60" as="geometry" />
        </mxCell>
      </root>
    </mxGraphModel>
  </diagram>
</mxfile>
